<?xml version="1.0" standalone="no"?><!DOCTYPE svg PUBLIC "-//W3C//DTD SVG 1.1//EN" "http://www.w3.org/Graphics/SVG/1.1/DTD/svg11.dtd"><svg t="1613446286348" class="icon" viewBox="0 0 1024 1024" version="1.1" xmlns="http://www.w3.org/2000/svg" p-id="2478" xmlns:xlink="http://www.w3.org/1999/xlink" width="200" height="200"><defs><style type="text/css"></style></defs><path d="M362.644092 55.263492 172.292063 55.263492c-61.042681 0-110.526984 49.484303-110.526984 110.526984l0 190.713228c0 61.042681 49.484303 110.526984 110.526984 110.526984L379.259259 467.030688l94.273016 0 0-94.273016L473.532275 165.790476C473.532275 104.747795 423.686772 55.263492 362.644092 55.263492zM403.459612 334.831746 403.459612 397.319224 341.333333 397.319224 204.438801 397.319224c-40.454321 0-72.962257-32.869136-72.962257-72.962257L131.476543 198.298413c0-40.454321 32.869136-72.962257 72.962257-72.962257l126.058554 0c40.454321 0 72.962257 32.869136 72.962257 72.962257L403.459612 334.831746z" p-id="2479"></path><path d="M855.681129 467.030688c61.042681 0 110.526984-49.484303 110.526984-110.526984L966.208113 165.790476c0-61.042681-49.484303-110.526984-110.526984-110.526984l-190.713228 0c-61.042681 0-110.526984 49.484303-110.526984 110.526984l0 206.967196 0 94.273016 94.273016 0L855.681129 467.030688zM624.51358 334.831746 624.51358 198.298413c0-40.454321 32.869136-72.962257 72.962257-72.962257L823.534392 125.336155c40.454321 0 72.962257 32.869136 72.962257 72.962257l0 126.058554c0 40.454321-32.869136 72.962257-72.962257 72.962257l-136.894533 0-62.126279 0L624.51358 334.831746z" p-id="2480"></path><path d="M172.292063 548.300529c-61.042681 0-110.526984 49.484303-110.526984 110.526984l0 190.713228c0 61.042681 49.484303 110.526984 110.526984 110.526984l190.713228 0c61.042681 0 110.526984-49.484303 110.526984-110.526984l0-206.967196 0-94.273016L379.259259 548.300529 172.292063 548.300529zM403.459612 680.499471l0 136.894533c0 40.454321-32.869136 72.962257-72.962257 72.962257L204.438801 890.356261c-40.454321 0-72.962257-32.869136-72.962257-72.962257l0-126.058554c0-40.454321 32.869136-72.962257 72.962257-72.962257l136.894533 0 62.126279 0L403.459612 680.499471z" p-id="2481"></path><path d="M855.681129 548.300529l-206.967196 0-94.273016 0 0 94.273016 0 206.967196c0 61.042681 49.484303 110.526984 110.526984 110.526984l190.713228 0c61.042681 0 110.526984-49.484303 110.526984-110.526984l0-190.713228C966.569312 597.784832 916.72381 548.300529 855.681129 548.300529zM896.496649 817.032804c0 40.454321-32.869136 72.962257-72.962257 72.962257l-126.058554 0c-40.454321 0-72.962257-32.869136-72.962257-72.962257l0-136.894533 0-62.126279 62.126279 0L823.534392 618.011993c40.454321 0 72.962257 32.869136 72.962257 72.962257L896.496649 817.032804z" p-id="2482"></path></svg>